<svg xmlns="http://www.w3.org/2000/svg" width="16" height="16" fill="currentColor" class="bi bi-github" viewBox="0 0 16 16">
  <path fill-rule="evenodd" fill="#fff" d="M8 0C3.58 0 0 3.58 0 8c0 3.54 2.29 6.53 5.47 7.59.4.07.55-.17.55-.38 0-.19-.01-.82-.01-1.49-2.01.37-2.53-.49-2.69-.94-.09-.23-.48-.94-.82-1.13-.28-.15-.68-.52-.01-.53.63-.01 1.08.58 1.23.82.72 1.21 1.87.87 2.33.66.07-.52.28-.87.51-1.07-1.78-.2-3.64-.89-3.64-3.95 0-.87.31-1.59.82-2.15-.08-.2-.36-1.02.08-2.12 0 0 .67-.21 2.2.82.64-.18 1.32-.27 2-.27.68 0 1.36.09 2 .27 1.53-1.04 2.2-.82 2.2-.82.44 1.1.16 1.92.08 2.12.51.56.82 1.27.82 2.15 0 3.07-1.87 3.75-3.65 3.95.29.25.54.73.54 1.48 0 1.07-.01 1.93-.01 2.2 0 .21.15.46.55.38A8.013 8.013 0 0016 8c0-4.42-3.58-8-8-8zm0 12.08c-2.22 0-4-1.8-4-4.02 0-1.77 1.15-3.27 2.75-3.8.2-.04.27.09.27.2v1.05c-1.13 0-1.38.54-1.64.85-.2.25-.4.52-.58.83-.17.28-.33.58-.2 1.13.4.2.65.49.77.83.85 2.3 2.3 2.45 2.3 2.45.05.2.08.45-.01.64-.28.4-.93.38-1.32.3-.07-.2-.4-1.2-.58-1.44-.3-.4-.68-.46-1.07-.28-.07.02-.15.05-.24.09-.1.03-.22.04-.34.04-.4 0-.76-.25-.88-.62-.05-.15-.3-.62-.55-.74 0 0-1.1-.78-2.85-.83-.15 0-.3-.02-.44-.02-1.72 0-3.11 1.4-3.11 3.12 0 1.72 1.39 3.11 3.1 3.11.04 0 .08 0 .12-.01.3.67.8 1.16 1.4 1.55.2.12.42.23.65.34.24.12.49.23.75.34.3.12.61.23.93.33.39.12.79.2 1.2.24.1 0 .2.02.31.02 1.75 0 2.85.82 2.85.82.25.12.5.6.55.74.12.37.48.62.88.62.12 0 .24-.01.35-.04.09-.04.17-.07.24-.09.4-.18.78-.12 1.07.28.18.24.5 1.24.58 1.44.39.08 1.04.1 1.32-.3.09-.19.06-.44.01-.64 0 0-1.45-.15-2.3-2.45-.12-.34-.37-.63-.77-.83z"/>
</svg>
